<svg width="66" height="29" viewBox="0 0 66 29" fill="none" xmlns="http://www.w3.org/2000/svg">
<path d="M1.992 23H0.992V24H1.992V23ZM1.992 6.2V5.2H0.992V6.2H1.992ZM5.208 6.2L6.06427 5.68347L5.77262 5.2H5.208V6.2ZM12.36 18.056V19.056H14.1311L13.2163 17.5395L12.36 18.056ZM10.656 18.056L9.79591 17.5459L8.90022 19.056H10.656V18.056ZM17.688 6.2V5.2H17.1185L16.8279 5.68986L17.688 6.2ZM20.88 6.2L21.88 6.19714L21.8771 5.2H20.88V6.2ZM20.928 23V24H21.9309L21.928 22.9971L20.928 23ZM17.28 23L16.28 23.0021L16.2821 24H17.28V23ZM17.256 11.792V10.792H16.2539L16.256 11.7941L17.256 11.792ZM17.928 11.792L18.7872 12.3036L19.6873 10.792H17.928V11.792ZM12.312 21.224V22.224H12.8804L13.1712 21.7356L12.312 21.224ZM10.56 21.224L9.70559 21.7436L9.99774 22.224H10.56V21.224ZM4.824 11.792V10.792H3.04546L3.96959 12.3116L4.824 11.792ZM5.64 11.792H6.64V10.792H5.64V11.792ZM5.64 23V24H6.64V23H5.64ZM2.992 23V6.2H0.992V23H2.992ZM1.992 7.2H5.208V5.2H1.992V7.2ZM4.35173 6.71653L11.5037 18.5725L13.2163 17.5395L6.06427 5.68347L4.35173 6.71653ZM12.36 17.056H10.656V19.056H12.36V17.056ZM11.5161 18.5661L18.5481 6.71014L16.8279 5.68986L9.79591 17.5459L11.5161 18.5661ZM17.688 7.2H20.88V5.2H17.688V7.2ZM19.88 6.20286L19.928 23.0029L21.928 22.9971L21.88 6.19714L19.88 6.20286ZM20.928 22H17.28V24H20.928V22ZM18.28 22.9979L18.256 11.7899L16.256 11.7941L16.28 23.0021L18.28 22.9979ZM17.256 12.792H17.928V10.792H17.256V12.792ZM17.0688 11.2804L11.4528 20.7124L13.1712 21.7356L18.7872 12.3036L17.0688 11.2804ZM12.312 20.224H10.56V22.224H12.312V20.224ZM11.4144 20.7044L5.67841 11.2724L3.96959 12.3116L9.70559 21.7436L11.4144 20.7044ZM4.824 12.792H5.64V10.792H4.824V12.792ZM4.64 11.792V23H6.64V11.792H4.64ZM5.64 22H1.992V24H5.64V22ZM24.9139 23H23.9139V24H24.9139V23ZM24.9139 6.2V5.2H23.9139V6.2H24.9139ZM37.3699 7.256L36.9185 8.1484L36.9268 8.15248L37.3699 7.256ZM40.6339 19.04L41.4807 19.572L41.4837 19.5671L40.6339 19.04ZM37.3699 21.968L37.813 22.8645L37.8212 22.8604L37.3699 21.968ZM28.8019 19.808H27.8019V20.808H28.8019V19.808ZM35.2579 19.184L35.7121 20.0749L35.7187 20.0715L35.2579 19.184ZM37.1779 17.36L36.3173 16.8507L36.3134 16.8572L36.3096 16.8639L37.1779 17.36ZM37.1779 11.84L36.3096 12.3361L36.3157 12.3467L36.322 12.3571L37.1779 11.84ZM35.2579 10.04L34.79 10.9238L34.8003 10.9292L34.8107 10.9344L35.2579 10.04ZM28.8019 9.392V8.392H27.8019V9.392H28.8019ZM25.9139 23V6.2H23.9139V23H25.9139ZM24.9139 7.2H32.5459V5.2H24.9139V7.2ZM32.5459 7.2C34.2396 7.2 35.6884 7.52619 36.9186 8.14837L37.8212 6.36363C36.2674 5.57781 34.5002 5.2 32.5459 5.2V7.2ZM36.9268 8.15248C38.1624 8.76318 39.1068 9.60896 39.7871 10.6919L41.4807 9.62805C40.593 8.21504 39.3614 7.12482 37.813 6.35952L36.9268 8.15248ZM39.7871 10.6919C40.4557 11.7562 40.8099 13.0452 40.8099 14.6H42.8099C42.8099 12.7308 42.3801 11.0598 41.4807 9.62805L39.7871 10.6919ZM40.8099 14.6C40.8099 16.1365 40.4567 17.4285 39.7841 18.5129L41.4837 19.5671C42.3791 18.1235 42.8099 16.4555 42.8099 14.6H40.8099ZM39.7871 18.5081C39.1055 19.5931 38.1583 20.4486 36.9186 21.0756L37.8212 22.8604C39.3654 22.0794 40.5943 20.9829 41.4807 19.5719L39.7871 18.5081ZM36.9268 21.0715C35.6947 21.6805 34.2429 22 32.5459 22V24C34.4968 24 36.2611 23.6315 37.813 22.8645L36.9268 21.0715ZM32.5459 22H24.9139V24H32.5459V22ZM28.8019 20.808H32.3539V18.808H28.8019V20.808ZM32.3539 20.808C33.5971 20.808 34.7275 20.5769 35.7121 20.0749L34.8037 18.2931C34.1563 18.6231 33.3507 18.808 32.3539 18.808V20.808ZM35.7187 20.0715C36.7144 19.5545 37.499 18.8136 38.0461 17.8561L36.3096 16.8639C35.9608 17.4744 35.4653 17.9495 34.7971 18.2965L35.7187 20.0715ZM38.0385 17.8693C38.6074 16.908 38.8739 15.8063 38.8739 14.6H36.8739C36.8739 15.5057 36.6763 16.244 36.3173 16.8507L38.0385 17.8693ZM38.8739 14.6C38.8739 13.3814 38.609 12.2749 38.0338 11.3229L36.322 12.3571C36.6748 12.9411 36.8739 13.6746 36.8739 14.6H38.8739ZM38.0461 11.3439C37.4971 10.383 36.708 9.64704 35.7051 9.14557L34.8107 10.9344C35.4717 11.265 35.9627 11.729 36.3096 12.3361L38.0461 11.3439ZM35.7258 9.15621C34.738 8.63327 33.6026 8.392 32.3539 8.392V10.392C33.3452 10.392 34.1458 10.5827 34.79 10.9238L35.7258 9.15621ZM32.3539 8.392H28.8019V10.392H32.3539V8.392ZM27.8019 9.392V19.808H29.8019V9.392H27.8019ZM44.742 23H43.742V24H44.742V23ZM44.742 6.2V5.2H43.742V6.2H44.742ZM47.958 6.2L48.8143 5.68347L48.5226 5.2H47.958V6.2ZM55.11 18.056V19.056H56.8811L55.9663 17.5395L55.11 18.056ZM53.406 18.056L52.5459 17.5459L51.6502 19.056H53.406V18.056ZM60.438 6.2V5.2H59.8685L59.5779 5.68986L60.438 6.2ZM63.63 6.2L64.63 6.19714L64.6272 5.2H63.63V6.2ZM63.678 23V24H64.6809L64.678 22.9971L63.678 23ZM60.03 23L59.03 23.0021L59.0321 24H60.03V23ZM60.006 11.792V10.792H59.0039L59.006 11.7941L60.006 11.792ZM60.678 11.792L61.5372 12.3036L62.4373 10.792H60.678V11.792ZM55.062 21.224V22.224H55.6304L55.9212 21.7356L55.062 21.224ZM53.31 21.224L52.4556 21.7436L52.7477 22.224H53.31V21.224ZM47.574 11.792V10.792H45.7955L46.7196 12.3116L47.574 11.792ZM48.39 11.792H49.39V10.792H48.39V11.792ZM48.39 23V24H49.39V23H48.39ZM45.742 23V6.2H43.742V23H45.742ZM44.742 7.2H47.958V5.2H44.742V7.2ZM47.1017 6.71653L54.2537 18.5725L55.9663 17.5395L48.8143 5.68347L47.1017 6.71653ZM55.11 17.056H53.406V19.056H55.11V17.056ZM54.2661 18.5661L61.2981 6.71014L59.5779 5.68986L52.5459 17.5459L54.2661 18.5661ZM60.438 7.2H63.63V5.2H60.438V7.2ZM62.63 6.20286L62.678 23.0029L64.678 22.9971L64.63 6.19714L62.63 6.20286ZM63.678 22H60.03V24H63.678V22ZM61.03 22.9979L61.006 11.7899L59.006 11.7941L59.03 23.0021L61.03 22.9979ZM60.006 12.792H60.678V10.792H60.006V12.792ZM59.8188 11.2804L54.2028 20.7124L55.9212 21.7356L61.5372 12.3036L59.8188 11.2804ZM55.062 20.224H53.31V22.224H55.062V20.224ZM54.1644 20.7044L48.4284 11.2724L46.7196 12.3116L52.4556 21.7436L54.1644 20.7044ZM47.574 12.792H48.39V10.792H47.574V12.792ZM47.39 11.792V23H49.39V11.792H47.39ZM48.39 22H44.742V24H48.39V22Z" fill="#D19067"/>
</svg>
